<?xml version="1.0" encoding="UTF-8"?>
<svg id="b" data-name="Layer 2" xmlns="http://www.w3.org/2000/svg" xmlns:xlink="http://www.w3.org/1999/xlink" viewBox="0 0 145.33 200.78">
  <defs>
    <linearGradient id="d" x1="110.94" y1="8.33" x2="50.67" y2="112.73" gradientUnits="userSpaceOnUse">
      <stop offset="0" stop-color="#1fddff"/>
      <stop offset=".38" stop-color="#09a9f1"/>
      <stop offset="1" stop-color="#c644d4"/>
    </linearGradient>
  </defs>
  <g id="c" data-name="Layer 1">
    <g>
      <path d="M103.98,20.98c-.23,4.88-2.19,8.77-2.67,11.78-.33,2.09,.73,4.15,2.58,5.14,.56,.3,1.21,.5,1.91,.56,.58,.05,1.22,0,1.75-.16,2.58-.74,4.2-1.88,7.07-2.07,2.91-.2,5.35,.64,7.24,2.22,3.71,3.1,4.7,8.36,4.4,12.96-.59,9.07-5.99,17.35-13.32,22.53l1.14,4.17c8.15-.51,16.66,2.43,20.19,8.43,1.93,3.28,1.4,7.23-1.62,9.66-2.86,2.3-3.38,5.71-2.34,9.1,1.78,5.77,.01,9.68-2.73,14.77-10.68,19.81-31.3,33.6-55.43,34.46-8.05,.29-15.75-1.09-23.02-3.34-2.8-.87-5.72-2.01-8.31-3.35,2.48,.55,5.79,.57,8.92-.28l6.7-1.83v-14.09s10.52-2.86,10.52-2.86c5.08-1.26,10.11-5.48,10.11-12.59v-8.99l25.37-6.88c3.86-1.05,6.01-4.82,4.96-8.68l-1.86-6.85,5.35-5.02-1.38-5.08-6.91-.73-.1-.38c-1.05-3.87-5.07-6.17-8.93-5.12l-10.76,2.92c2.46,11.89-4.83,23.78-16.58,26.97l-27.1,7.35c-3.05,.83-4.99,2.87-5,6.09v26.49c0,.82-.39,1.63-1.01,2.18-.71,.63-1.73,.88-2.65,.65-.57-.14-1.14-.5-1.75-.98-2.12-1.7-4.13-3.53-6.02-5.48-7.76-8-12.1-17.44-10.92-28.16,.47-4.25,.22-6.08-3.12-8.92-1.81-1.55-3.33-3.22-4.56-5.01-3.75-5.48-4.97-12.33-3.56-18.81,1.01-4.65,3.51-8.98,7.18-12.44,1.64-1.54,3.5-2.82,5.63-3.86,2.35-1.14,4.92-2.01,6.83-3.86,.94-.91,1.65-2.32,1.89-3.6,.18-.93,.19-1.9,0-2.83-.07-.35-.18-.7-.3-1.05-.65-1.92-1.83-3.13-2.66-4.84-.79-1.62-1.33-3.45-1.56-5.32-.31-2.51-.02-4.98,.81-7.36,.76-2.18,1.93-4.08,3.65-5.86,2.26-2.35,5.25-3.99,8.77-4.73,10.76-2.27,20.22,2.29,26.92,10.63,1,1.24,2.5,3.25,3.72,4.61,.73,.81,1.5,1.54,2.48,2.05,.93,.48,1.98,.75,3.1,.75,3.33,0,6.09-2.41,6.65-5.57,.25-1.19,.05-2.4-.28-3.55-.34-1.17-.87-2.5-1.38-3.75-.54-1.31-1.94-3.82-2.25-4.84-.51-1.68-.82-3.38-.78-5.04,.08-3.1,1.39-6.25,3.48-8.53,1.42-1.54,3.21-2.77,5.14-3.49,10.59-3.98,27.24,1.23,26.37,19.73h0Zm14.65,53.51c7.81-.95,25.43-10.24,26.64-18.38,.13-.89,.05-1.73-.21-2.49-.9-2.68-3.81-4.11-6.51-3.26-1.37,.43-2.58,1.44-3.22,3-3.83,9.3-7.71,15.77-16.7,21.12h0Zm18.15,5.73c.63,.49,1.41,.68,2.18,.63,1.46-.1,2.63-1.09,3-2.5,.12-.47,.15-.96,.07-1.43-.14-.78-.56-1.52-1.27-2.06-3.16-2.39-10.38-.58-13.55,.82,4.3,.84,6.83,2.4,9.57,4.52h0Zm-114.18-11.89c-6.88,1.87-11.75,7.57-12.93,14.19-.88,4.93,.38,10.01,3.43,13.97,4.3,5.56,11.69,8.32,18.85,6.37l5.87-1.6,27.76-7.56c7.86-2.14,13.1-9.29,13.2-17.07,.04-3.22-.81-6.42-2.43-9.19-3.98-6.8-12.19-10.41-20.13-8.25l-33.63,9.16h0Zm6.25,10.25l2.38-.64c1.42-.38,2.27-1.84,1.89-3.27-.38-1.42-1.84-2.27-3.27-1.89l-2.38,.64c-1.42,.38-2.27,1.84-1.89,3.27,.38,1.42,1.84,2.27,3.27,1.89h0Zm12.08-3.24l17.73-4.75c1.59-.38,3.18-.34,4.56,.18,1.23,.46,2.32,1.34,3.14,2.69,.76,1.26,2.4,1.67,3.66,.91,1.26-.76,1.67-2.4,.91-3.67-1.47-2.44-3.51-4.05-5.83-4.93-2.42-.92-5.1-1-7.7-.37l-17.84,4.77c-1.42,.38-2.27,1.84-1.89,3.27,.38,1.42,1.84,2.27,3.27,1.89h0Zm15.52,37.45v10.92s8.47-2.3,8.47-2.3c3.02-.82,4.48-2.24,4.48-5.79v-6.34s-4.63,1.25-4.63,1.25v6.98s-3.68,1-3.68,1v-6.98l-4.65,1.26Z" style="fill: url(#d); fill-rule: evenodd;"/>
      <path d="M18.68,200.36h14.96c7.52,0,11.13-3.95,11.13-9.33,0-4.47-2.47-7.52-6.8-8.57v-.09c3.66-1.43,5.09-4.52,5.09-7.57,0-5.38-3.9-8.23-11.09-8.23h-13.29v33.78h0Zm6.61-19.99v-7.9h5.87c3.66,0,5.14,1.57,5.14,3.95,0,2.76-1.95,3.95-4.85,3.95h-6.16Zm0,14.08v-8.66h6.73c3.85,0,5.81,1.71,5.81,4.38,0,2.85-1.95,4.28-5.14,4.28h-7.39Zm24.76,5.9h6.23v-33.78h-6.23v33.78h0Zm23.02,.43c3.05,0,5.66-1.14,7.27-3.24l.09,.05v2.76h5.95v-23.27h-6.23v2.66l-.1,.05c-1.66-2-4.42-3.05-7.13-3.05-6.23,0-11.5,5-11.5,12.04s5.27,11.99,11.64,11.99h0Zm1.19-5.62c-3.52,0-6.5-2.62-6.5-6.33,0-4,3.13-6.52,6.5-6.52,1.51,0,2.91,.56,4,1.53,2.79,2.47,2.93,7.18,.15,9.71-1.13,1.03-2.62,1.61-4.15,1.61h0Zm25.59,5.62c6.09,0,8.99-3.14,8.99-7.23,0-4.62-2.95-5.7-7.99-7.57-2.29-.85-3.43-1.52-3.43-2.47,0-1.24,1.24-1.71,2.19-1.71,1.71,0,3.81,.76,5.57,2.47l3.04-4.62c-2.66-2.05-5.28-2.9-8.47-2.9-4.81,0-8.42,2.71-8.42,6.9,0,4.52,3.33,6.33,7.18,7.61,3,1,4.19,1.52,4.19,2.52,0,1.14-1,1.9-2.81,1.9-2.57,0-4.57-.9-6.47-2.67l-3,4.33c2.52,2.19,5.71,3.43,9.42,3.43h0Zm19.73,0c3.14,0,4.66-.67,6.14-1.47l-1.57-5c-1.05,.52-2.19,.81-2.95,.81-1.47,0-2-.95-2-3v-9.85h6.28v-5.19h-6.28l-.28-8.89-5.96,1.68v23.15c0,5.23,2.62,7.76,6.61,7.76Z" style="fill: #c644d4; fill-rule: evenodd;"/>
    </g>
  </g>
</svg>