<?xml version="1.0" encoding="UTF-8"?>
<svg id="b" data-name="Layer 2" xmlns="http://www.w3.org/2000/svg" xmlns:xlink="http://www.w3.org/1999/xlink" viewBox="0 0 514.95 222.38">
  <defs>
    <linearGradient id="d" x1="149.41" y1="-1.07" x2="18.65" y2="192.79" gradientUnits="userSpaceOnUse">
      <stop offset="0" stop-color="#1fddff"/>
      <stop offset=".16" stop-color="#3fbdf1"/>
      <stop offset=".57" stop-color="#8c72d0"/>
      <stop offset=".86" stop-color="#bc43bc"/>
      <stop offset="1" stop-color="#cf32b5"/>
    </linearGradient>
  </defs>
  <g id="c" data-name="Layer 1">
    <path d="M54.31,198.28c-1.8-1.23-3.53-2.43-5.2-3.59,.66-.34,1.32-.71,1.98-1.11,3.86-2.33,5.31-3.25,10.01-2.55l45.89,6.85-38.66-19.5c-1.07-.56-1.79-1.06-1.23-2.39,.06-.14,.12-.29,.18-.43,.49-1.2,1.6-1.63,2.76-1.87l76.21-17.35H77.14c-3.08-.07-4.88-.12-6.2-1.06l82.27-58.85,10.77,15.06c3.99,5.58,6.01,11.58,5.19,18.78-3.5,26.27-10.15,39.46-21.7,50.52h-23.89l17.29,5.73c-4.75,3.78-10.15,7.54-16.31,11.76l-35.13,24.1-35.13-24.1h0ZM172.35,29.04c-31.32,6.74-65.7-1.63-82.9-29.04C72.25,27.41,37.87,35.79,6.55,29.04v45.83c0,19.67,.78,39.92,3.77,59.39,1.17-1.28,1.82-2.67,2.23-4.85l11.98-63.57v57.66c.25,2.46,1.03,3.13,3.51,2.73,.74-.12,1.5-.22,2.26-.29,3.17-.31,4.61-1.62,5.77-4.52L72.8,30.03l-15.36,77.47c-1.32,6.66-4.18,11.48-9.53,15.73l-15.77,12.34c-13.17,10.3-25.28,28.63-32.13,50.88,.37-.84,.77-1.67,1.17-2.51,8.3-17.09,23.09-34.38,30.14-39.41l99.34-70.87c2.98,5.84-.72,9.27-4.26,12.43l-63.14,48.65c-8.06,6.21-16.73,14.26-22.02,22.13l91.27-65.38c8.04-5.77,8.62-11.98,3.04-19.79l-17.48-24.48,1.48-1.06c4.26-3.04,10.26-2.03,13.29,2.22l15.76,22.08,17.97-12.97c4.66-3.36,5.78-6.48,5.78-12.23,0-6.12,0-10.11,0-16.23h0Zm-76.1,18.15l-22.44,50.61,20.69-28.94c5.66-7.92,5.44-13.04,1.75-21.66h0ZM55.75,184.41c-6.79-6.71-15.63-7.9-24.4-5-5.51,1.83-13.01,3.75-18.82,5H55.75Zm120.01-113.65l-17.84,12.76,11.11,15.53,2.67,3.73c.26-5.57,.45-10.86,.55-16.64,.11-6.32,1.1-10.06,3.52-15.38Z" style="fill: url(#d); fill-rule: evenodd;"/>
    <path d="M224.06,151.14h28.21c15.76,0,23.39-8.53,23.39-20.29,0-10.2-5.82-16.65-14.15-18.73v-.1c7.33-3.02,10.54-9.89,10.54-16.76,0-12.07-8.54-18.01-23.19-18.01h-24.8v73.9h0Zm12.15-43.3v-19.36l11.34-.1c8.33-.08,12.15,3.85,12.15,9.68,0,6.97-4.92,9.78-11.75,9.78h-11.75Zm0,32.06v-21.23h12.65c9.44,0,14.15,4.27,14.15,10.82,0,6.97-4.72,10.41-12.25,10.41h-14.56Zm50.63,11.24h39.45l4.48-11.24h-31.78v-62.66h-12.15v73.9h0Zm49.29,0h12.65l5.32-15.92h29.11l5.42,15.92h12.65l-26.7-73.9h-11.85l-26.6,73.9h0Zm21.68-26.75l10.74-32.06h.2l10.84,32.06h-21.79Zm73.94,27.58c11.44,0,24.6-6.87,24.6-22.17,0-14.26-9.82-17.74-22.09-22.69-8.62-3.48-13.45-5.31-13.35-10.72,.1-5.52,4.52-8.64,10.04-8.64,4.82,0,12.34,3.08,18.17,8.15l4.53-11.45c-6.88-5.28-14.76-8.05-22.7-8.05-12.35,0-22.59,9.06-22.59,20.61,0,13.53,10.75,18.51,21.58,22.48,9.04,3.31,13.75,5.41,13.75,11.87,0,3.64-1.82,6.44-5.39,7.87-5.17,2.08-10.95,.94-15.83-1.42-4-1.93-7.95-4.88-10.76-8.42l-4.87,12.22c6.99,6.57,15.77,10.35,24.9,10.35h0Zm49.44-.83h12.15v-62.66h17.14l4.48-11.24h-50.6l-4.48,11.24h21.31v62.66Z" style="fill: #5da1e5; fill-rule: evenodd;"/>
  </g>
</svg>